<?xml version="1.0" encoding="UTF-8" standalone="no"?>
<!DOCTYPE svg PUBLIC "-//W3C//DTD SVG 1.1//EN" "http://www.w3.org/Graphics/SVG/1.1/DTD/svg11.dtd">
<svg width="100%" height="100%" viewBox="0 0 100 100" version="1.1" xmlns="http://www.w3.org/2000/svg" xmlns:xlink="http://www.w3.org/1999/xlink" xml:space="preserve" xmlns:serif="http://www.serif.com/" style="fill-rule:evenodd;clip-rule:evenodd;stroke-linejoin:round;stroke-miterlimit:2;">
    <path d="M100,12.5L100,87.5L87.5,100L12.5,100L0,87.5L0,12.5L12.5,0L87.5,0L100,12.5Z" style="fill:rgb(159,32,101);"/>
    <path d="M80,20L80,80L70,90L10,90L0,80L0,20L10,10L70,10L80,20Z" style="fill:rgb(237,29,37);"/>
    <path d="M80,20L80,80L70,90L10,90L0,80L0,20L10,10L70,10L80,20Z" style="fill:rgb(237,29,37);"/>
    <path d="M60,27.5L60,72.5L52.5,80L7.5,80L0,72.5L0,27.5L7.5,20L52.5,20L60,27.5Z" style="fill:rgb(244,91,46);"/>
    <path d="M41.986,35.248L41.986,66.737L36.737,71.986L5.248,71.986L0,66.737L0,35.248L5.248,30L36.737,30L41.986,35.248Z" style="fill:rgb(254,151,15);"/>
</svg>
