<?xml version="1.0" encoding="UTF-8" standalone="no"?>
<svg height="24" stroke-miterlimit="10" style="fill-rule:nonzero;clip-rule:evenodd;stroke-linecap:round;stroke-linejoin:round;" version="1.1" viewBox="0 0 24 24" width="24px" xml:space="preserve" xmlns="http://www.w3.org/2000/svg" xmlns:xlink="http://www.w3.org/1999/xlink">
<defs/>
<path d="M12 0C5.37258 0 1.60115e-07 5.37258 0 12C0 18.6274 5.37258 24 12 24C18.6274 24 24 18.6274 24 12C24 5.37258 18.6274 1.60115e-07 12 0ZM4.59375 5.0625L9.03125 5.0625L12.7812 10.0625L17.4375 5.0625L18.75 5.0625L13.375 10.8438L19.4375 18.9375L15 18.9375L10.9375 13.5L5.875 18.9375L4.5625 18.9375L10.3438 12.7188L4.59375 5.0625ZM6.53125 6L15.5 18L17.5312 18L8.5625 6L6.53125 6Z" fill="#FE970F" fill-rule="nonzero" opacity="1" stroke="none"/>
</svg>
