<?xml version="1.0" encoding="UTF-8" standalone="no"?>
<!DOCTYPE svg PUBLIC "-//W3C//DTD SVG 1.1//EN" "http://www.w3.org/Graphics/SVG/1.1/DTD/svg11.dtd">
<!-- Created with Vectornator (http://vectornator.io/) -->
<svg height="100%" stroke-miterlimit="10" style="fill-rule:nonzero;clip-rule:evenodd;stroke-linecap:round;stroke-linejoin:round;" version="1.1" viewBox="0 0 240 64" width="100%" xml:space="preserve" xmlns="http://www.w3.org/2000/svg" xmlns:vectornator="http://vectornator.io" xmlns:xlink="http://www.w3.org/1999/xlink">
<defs/>
<clipPath id="ArtboardFrame">
<rect height="64" width="240" x="0" y="0"/>
</clipPath>
<g clip-path="url(#ArtboardFrame)" id="Layer-1" vectornator:layerName="Layer 1">
<path d="M0 19C20 19 20 39 40 39C60 39 60 19 80 19C100 19 100 39 120 39C140 39 140 19 160 19C180 19 180 39 200 39C220 39 220 19 240 19" fill="none" opacity="1" stroke="#ffc017" stroke-linecap="butt" stroke-linejoin="round" stroke-width="0.429026" vectornator:layerName="Curve 9"/>
<path d="M0 13C20 13 20 33 40 33C60 33 60 13 80 13C100 13 100 33 120 33C140 33 140 13 160 13C180 13 180 33 200 33C220 33 220 13 240 13" fill="none" opacity="1" stroke="#ffc017" stroke-linecap="butt" stroke-linejoin="round" stroke-width="0.429026" vectornator:layerName="Curve 11"/>
<path d="M0 7C20 7 20 27 40 27C60 27 60 7 80 7C100 7 100 27 120 27C140 27 140 7 160 7C180 7 180 27 200 27C220 27 220 7 240 7" fill="none" opacity="1" stroke="#ffc017" stroke-linecap="butt" stroke-linejoin="round" stroke-width="0.429026" vectornator:layerName="Curve 13"/>
<path d="M0 1C20 1 20 21 40 21C60 21 60 1 80 1C100 1 100 21 120 21C140 21 140 1 160 1C180 1 180 21 200 21C220 21 220 1 240 1" fill="none" opacity="1" stroke="#ffc017" stroke-linecap="butt" stroke-linejoin="round" stroke-width="0.429026" vectornator:layerName="Curve 15"/>
<path d="M0 25C20 25 20 45 40 45C60 45 60 25 80 25C100 25 100 45 120 45C140 45 140 25 160 25C180 25 180 45 200 45C220 45 220 25 240 25" fill="none" opacity="1" stroke="#ffc017" stroke-linecap="butt" stroke-linejoin="round" stroke-width="0.429026" vectornator:layerName="Curve 2"/>
<path d="M0 31C20 31 20 51 40 51C60 51 60 31 80 31C100 31 100 51 120 51C140 51 140 31 160 31C180 31 180 51 200 51C220 51 220 31 240 31" fill="none" opacity="1" stroke="#ffc017" stroke-linecap="butt" stroke-linejoin="round" stroke-width="0.429026" vectornator:layerName="Curve 4"/>
<path d="M0 37C20 37 20 57 40 57C60 57 60 37 80 37C100 37 100 57 120 57C140 57 140 37 160 37C180 37 180 57 200 57C220 57 220 37 240 37" fill="none" opacity="1" stroke="#ffc017" stroke-linecap="butt" stroke-linejoin="round" stroke-width="0.429026" vectornator:layerName="Curve 6"/>
<path d="M0 43C20 43 20 63 40 63C60 63 60 43 80 43C100 43 100 63 120 63C140 63 140 43 160 43C180 43 180 63 200 63C220 63 220 43 240 43" fill="none" opacity="1" stroke="#ffc017" stroke-linecap="butt" stroke-linejoin="round" stroke-width="0.429026" vectornator:layerName="Curve 8"/>
</g>
</svg>
